<svg width="92" height="93" viewBox="0 0 92 93" fill="none" xmlns="http://www.w3.org/2000/svg">
<g filter="url(#filter0_d_36_398)">
<path d="M45.9948 42.0258C45.9948 53.1636 41.5704 63.8451 33.6948 71.7207C25.8193 79.5962 15.1377 84.0207 4 84.0207V42.0258H45.9948Z" fill="#F9B24E"/>
<path d="M88 42.0258C88 47.5407 86.9138 53.0015 84.8034 58.0966C82.6929 63.1916 79.5995 67.8211 75.7 71.7207C71.8004 75.6203 67.1709 78.7136 62.0758 80.824C56.9808 82.9344 51.52 84.0207 46.0051 84.0207V42.0258H88Z" fill="#A8BBC6"/>
<path d="M45.9948 41.9948C45.9935 36.4788 47.0791 31.0165 49.1897 25.9201C51.3004 20.8238 54.3945 16.1933 58.2955 12.2933C62.1964 8.39334 66.8276 5.30028 71.9245 3.19093C77.0214 1.08158 82.4839 -0.00271036 88 5.0877e-06V41.9948H45.9948Z" fill="#45525B"/>
<path d="M4 41.9948C3.99864 36.4796 5.0839 31.0182 7.19386 25.9225C9.30382 20.8268 12.3971 16.1968 16.2969 12.297C20.1968 8.39711 24.8268 5.30385 29.9225 3.19389C35.0182 1.08394 40.4796 -0.00135632 45.9948 1.27209e-06V41.9948H4Z" fill="#FE7E02"/>
</g>
<defs>
<filter id="filter0_d_36_398" x="0" y="0" width="92" height="92.0207" filterUnits="userSpaceOnUse" color-interpolation-filters="sRGB">
<feFlood flood-opacity="0" result="BackgroundImageFix"/>
<feColorMatrix in="SourceAlpha" type="matrix" values="0 0 0 0 0 0 0 0 0 0 0 0 0 0 0 0 0 0 127 0" result="hardAlpha"/>
<feOffset dy="4"/>
<feGaussianBlur stdDeviation="2"/>
<feComposite in2="hardAlpha" operator="out"/>
<feColorMatrix type="matrix" values="0 0 0 0 0 0 0 0 0 0 0 0 0 0 0 0 0 0 0.25 0"/>
<feBlend mode="normal" in2="BackgroundImageFix" result="effect1_dropShadow_36_398"/>
<feBlend mode="normal" in="SourceGraphic" in2="effect1_dropShadow_36_398" result="shape"/>
</filter>
</defs>
</svg>
